<?xml version="1.0" standalone="no"?>
<!DOCTYPE svg PUBLIC "-//W3C//DTD SVG 20010904//EN"
 "http://www.w3.org/TR/2001/REC-SVG-20010904/DTD/svg10.dtd">
<svg version="1.0" xmlns="http://www.w3.org/2000/svg"
 width="749.000000pt" height="702.000000pt" viewBox="0 0 749.000000 702.000000"
 preserveAspectRatio="xMidYMid meet">

<g transform="translate(0.000000,702.000000) scale(0.100000,-0.100000)"
fill="#000000" stroke="none">
<path d="M5555 6845 c-212 -35 -397 -95 -610 -200 -423 -208 -808 -549 -1130
-1000 -184 -258 -372 -627 -475 -933 l-38 -114 -61 119 c-221 434 -543 806
-891 1032 -200 129 -463 232 -685 266 -161 25 -411 17 -553 -19 -497 -125
-828 -490 -907 -1001 -21 -135 -16 -412 10 -545 45 -234 117 -449 224 -675
391 -823 1203 -1610 2136 -2070 183 -90 345 -157 451 -186 126 -35 254 -29
254 12 0 4 -19 13 -42 20 -176 47 -799 447 -1202 771 -286 231 -575 510 -729
702 -284 357 -509 762 -611 1099 -61 200 -80 326 -80 532 0 243 31 404 114
581 122 262 320 430 586 496 136 33 323 31 465 -5 170 -44 297 -101 454 -204
184 -122 375 -297 528 -485 244 -301 447 -704 478 -951 6 -45 16 -93 23 -107
19 -40 73 -70 126 -70 75 0 77 6 83 215 6 204 24 308 87 496 183 551 644 1145
1148 1480 563 374 1229 511 1593 329 136 -68 241 -180 290 -309 126 -337 -2
-967 -313 -1536 -256 -469 -546 -837 -1308 -1665 -301 -327 -455 -499 -586
-655 -424 -506 -650 -909 -724 -1292 -65 -337 -12 -744 111 -847 27 -23 57
-28 77 -11 1 1 20 71 41 156 125 494 358 958 689 1370 69 86 275 305 578 614
502 513 665 683 846 890 707 808 1076 1490 1163 2148 19 152 20 408 0 520 -45
259 -154 468 -339 653 -189 189 -407 305 -696 369 -106 24 -453 30 -575 10z"/>
</g>
</svg>
